<svg xmlns="http://www.w3.org/2000/svg" width="1440" height="1024" viewBox="0 0 1440 1024">
<defs>
 <linearGradient id="bg" x1="0" y1="0" x2="1" y2="1"><stop stop-color="#eff8f5"/><stop offset="1" stop-color="#f7fafc"/></linearGradient>
 <linearGradient id="hero" x1="0" y1="0" x2="1" y2="1"><stop stop-color="#086c5b"/><stop offset=".6" stop-color="#0c8a73"/><stop offset="1" stop-color="#17675c"/></linearGradient>
 <filter id="shadow"><feDropShadow dx="0" dy="12" stdDeviation="18" flood-color="#1b5a4c" flood-opacity=".11"/></filter>
</defs>
<rect width="1440" height="1024" fill="url(#bg)"/>
<ellipse cx="1240" cy="80" rx="320" ry="190" fill="#7fd8bd" opacity=".16"/>
<ellipse cx="100" cy="580" rx="300" ry="230" fill="#8aa9dc" opacity=".10"/>
<rect x="20" y="20" width="250" height="984" rx="28" fill="#fff" fill-opacity=".68" stroke="#fff" filter="url(#shadow)"/>
<rect x="52" y="50" width="186" height="62" rx="16" fill="#f5fbf9" stroke="#cae8df"/>
<text x="145" y="88" text-anchor="middle" font-family="Arial" font-size="24" font-weight="700" fill="#0c7363">شعار معلّمي</text>
<g font-family="Arial" font-size="16" fill="#41665e">
 <rect x="44" y="150" width="202" height="54" rx="15" fill="#eaf7f3"/><text x="215" y="183" text-anchor="end">اختبارات نافس</text>
 <rect x="44" y="218" width="202" height="54" rx="15" fill="#fff" fill-opacity=".48"/><text x="215" y="251" text-anchor="end">إنشاء اختبار</text>
 <rect x="44" y="286" width="202" height="54" rx="15" fill="#fff" fill-opacity=".48"/><text x="215" y="319" text-anchor="end">المراجعة والتصحيح</text>
 <rect x="44" y="354" width="202" height="54" rx="15" fill="#fff" fill-opacity=".48"/><text x="215" y="387" text-anchor="end">تحليل النتائج</text>
</g>
<rect x="300" y="28" width="1110" height="78" rx="22" fill="#fff" fill-opacity=".62" stroke="#fff" filter="url(#shadow)"/>
<text x="1365" y="62" text-anchor="end" font-family="Arial" font-size="13" fill="#78918b">القسم الحالي</text>
<text x="1365" y="87" text-anchor="end" font-family="Arial" font-size="23" font-weight="700" fill="#183d36">نافس — الصف الثالث المتوسط</text>
<rect x="300" y="132" width="1110" height="205" rx="30" fill="url(#hero)" filter="url(#shadow)"/>
<circle cx="1295" cy="155" r="110" fill="#fff" opacity=".08"/>
<text x="1350" y="192" text-anchor="end" font-family="Arial" font-size="13" fill="#eafff8">اختبارات نافس</text>
<text x="1350" y="238" text-anchor="end" font-family="Arial" font-size="34" font-weight="700" fill="#fff">اختبارات المؤشرات</text>
<rect x="1160" y="270" width="190" height="44" rx="13" fill="#fff" opacity=".95"/>
<text x="1255" y="298" text-anchor="middle" font-family="Arial" font-size="15" font-weight="700" fill="#0b7563">إنشاء اختبار</text>
<rect x="948" y="270" width="190" height="44" rx="13" fill="#fff" opacity=".14" stroke="#fff" stroke-opacity=".35"/>
<text x="1043" y="298" text-anchor="middle" font-family="Arial" font-size="15" font-weight="700" fill="#fff">إدارة الطلاب</text>
<g filter="url(#shadow)">
 <rect x="300" y="365" width="255" height="112" rx="21" fill="#fff" fill-opacity=".70" stroke="#fff"/>
 <rect x="570" y="365" width="255" height="112" rx="21" fill="#fff" fill-opacity=".70" stroke="#fff"/>
 <rect x="840" y="365" width="255" height="112" rx="21" fill="#fff" fill-opacity=".70" stroke="#fff"/>
 <rect x="1110" y="365" width="300" height="112" rx="21" fill="#fff" fill-opacity=".70" stroke="#fff"/>
</g>
<g font-family="Arial" fill="#0d7c69" font-size="30" font-weight="700">
 <text x="520" y="430" text-anchor="end">270</text><text x="790" y="430" text-anchor="end">3</text><text x="1060" y="430" text-anchor="end">—</text><text x="1370" y="430" text-anchor="end">—</text>
</g>
<g filter="url(#shadow)">
 <rect x="300" y="505" width="355" height="142" rx="22" fill="#fff" fill-opacity=".68" stroke="#fff"/>
 <rect x="677" y="505" width="355" height="142" rx="22" fill="#fff" fill-opacity=".68" stroke="#fff"/>
 <rect x="1054" y="505" width="356" height="142" rx="22" fill="#fff" fill-opacity=".68" stroke="#fff"/>
</g>
<g font-family="Arial" font-size="20" font-weight="700" fill="#244a42">
 <text x="620" y="558" text-anchor="end">القراءة</text><text x="997" y="558" text-anchor="end">الرياضيات</text><text x="1375" y="558" text-anchor="end">العلوم</text>
</g>
<rect x="300" y="676" width="250" height="300" rx="23" fill="#fff" fill-opacity=".66" stroke="#fff" filter="url(#shadow)"/>
<rect x="570" y="676" width="840" height="300" rx="23" fill="#fff" fill-opacity=".66" stroke="#fff" filter="url(#shadow)"/>
<text x="515" y="722" text-anchor="end" font-family="Arial" font-size="18" font-weight="700" fill="#244a42">البحث والتصفية</text>
<text x="1370" y="722" text-anchor="end" font-family="Arial" font-size="18" font-weight="700" fill="#244a42">المؤشرات والمحتوى</text>
</svg>